<svg width="43" height="43" viewBox="0 0 43 43" fill="none" xmlns="http://www.w3.org/2000/svg">
<rect width="43" height="43" rx="8" fill="#FAFBFF"/>
<path d="M22.9449 11.9005L22.9449 11.9005L22.9443 11.9004C22.4889 11.89 22.0495 12.0679 21.7311 12.3919L21.7311 12.3919L21.7307 12.3923C21.4223 12.7101 21.2625 13.1422 21.2906 13.583L21.2906 13.5833L21.7289 20.1234L21.7291 20.125C21.8017 21.0027 22.5388 21.6779 23.4239 21.6798H23.4241H23.5293V21.68L23.5359 21.6796L30.1094 21.2442C30.1095 21.2442 30.1096 21.2442 30.1098 21.2442C30.5308 21.2202 30.925 21.0301 31.2044 20.7158C31.449 20.4407 31.5879 20.0905 31.5999 19.7267L31.6001 19.7267L31.6 19.7217L31.5975 19.5768V19.576V19.4375V19.3375H31.5733C30.8446 15.1388 27.2384 12.0253 22.9449 11.9005ZM23.5171 19.9059L23.0932 13.6906C26.3993 13.8741 29.1591 16.2655 29.7918 19.4931L23.5171 19.9059Z" fill="#869EFF" stroke="#869EFF" stroke-width="0.2"/>
<path d="M18.2261 14.5495L18.2261 14.5494L18.223 14.5499L18.1228 14.5634L18.1228 14.5633L18.1194 14.564C14.2327 15.3695 11.4486 18.775 11.4525 22.7198C11.4424 23.0458 11.463 23.3719 11.5143 23.694C11.8306 26.4468 13.509 28.8609 15.9882 30.1293C18.4676 31.3979 21.4207 31.3531 23.86 30.01C25.848 28.9286 27.3089 27.0916 27.9079 24.9197L27.9079 24.9195C27.9671 24.7019 27.935 24.4697 27.819 24.2759C27.7032 24.0824 27.5135 23.9437 27.2933 23.8913C26.882 23.7826 26.4592 23.9906 26.2908 24.3674L26.2907 24.3674L26.2895 24.3705L26.2524 24.4711L26.2523 24.4711L26.2512 24.4748C25.3923 27.5191 22.4889 29.5375 19.3152 29.2958C16.1416 29.054 13.5819 26.6196 13.2001 23.4809L13.2001 23.4809L13.2 23.4796C13.164 23.2375 13.1495 22.9928 13.1567 22.7482L13.1567 22.7466C13.1491 19.603 15.3596 16.8838 18.4551 16.2295C18.9175 16.1374 19.2179 15.6903 19.1253 15.2301C19.0397 14.8053 18.6494 14.5188 18.2261 14.5495Z" fill="#3F5EDF" stroke="#3F5EDF" stroke-width="0.1"/>
</svg>
