<svg width="44" height="43" viewBox="0 0 44 43" fill="none" xmlns="http://www.w3.org/2000/svg">
<rect x="0.5" width="43" height="43" rx="8" fill="#FAFBFF"/>
<path fill-rule="evenodd" clip-rule="evenodd" d="M15.2 15C13.7088 15 12.5 16.1193 12.5 17.5V28.3333C12.5 29.2538 13.3059 30 14.3 30H28.7C29.6941 30 30.5 29.2538 30.5 28.3333V20C30.5 19.0795 29.6941 18.3333 28.7 18.3333V16.6667C28.7 15.7462 27.8941 15 26.9 15H15.2ZM14.3 17.5C14.3 17.9602 14.7029 18.3333 15.2 18.3333H26.9V16.6667H15.2C14.7029 16.6667 14.3 17.0398 14.3 17.5ZM14.3 19.8577C14.5815 19.9499 14.8844 20 15.2 20H28.7V28.3333H14.3V19.8577Z" fill="#3F5EDF"/>
<path d="M27.1008 24.1667C27.1008 24.8571 26.5299 25.4167 25.8258 25.4167C25.1216 25.4167 24.5508 24.8571 24.5508 24.1667C24.5508 23.4764 25.1216 22.9167 25.8258 22.9167C26.5299 22.9167 27.1008 23.4764 27.1008 24.1667Z" fill="#869EFF"/>
</svg>
