<svg width="48" height="48" viewBox="0 0 48 48" fill="none" xmlns="http://www.w3.org/2000/svg">
<g clip-path="url(#clip0_11_8757)">
<g clip-path="url(#clip1_11_8757)">
<g clip-path="url(#clip2_11_8757)">
<path d="M23.8806 47.7553C37.0695 47.7553 47.7612 37.0636 47.7612 23.8747C47.7612 10.6858 37.0695 -0.00585938 23.8806 -0.00585938C10.6917 -0.00585938 0 10.6858 0 23.8747C0 37.0636 10.6917 47.7553 23.8806 47.7553Z" fill="white"/>
<path d="M40.5268 23.4338C40.2522 20.2588 37.5663 17.7656 34.2892 17.7656C32.1777 17.7656 30.3109 18.8031 29.1792 20.3885C28.512 21.3255 28.0938 22.4466 28.0346 23.6723C28.0303 23.7685 28.0262 23.8689 28.0262 23.9651C28.0262 26.1361 26.2524 27.893 24.0649 27.893C24.0606 27.893 24.0606 27.893 24.0606 27.893H24.0563C21.8731 27.893 20.0951 26.1361 20.0951 23.9651C20.0951 23.8689 20.0909 23.7685 20.0867 23.6723C20.0318 22.4466 19.6137 21.3255 18.9422 20.3885C17.8231 18.8031 15.9564 17.7656 13.8449 17.7656C10.5677 17.7656 7.88179 20.2588 7.60729 23.4338C7.60729 23.4338 7.58618 23.689 7.5904 23.7517C7.63265 24.3415 8.12251 24.8143 8.73065 24.8143C9.36834 24.8143 9.85822 24.2956 9.87936 23.6765C9.95537 22.66 10.4241 21.7522 11.1336 21.0996C11.8473 20.4471 12.7975 20.0455 13.8406 20.0455C15.9269 20.0455 17.6373 21.6476 17.7893 23.6765L17.8062 23.9943C17.8104 25.3203 18.2327 26.5418 18.9507 27.5458C20.0825 29.1312 21.9533 30.1688 24.0606 30.1688C24.0649 30.1688 24.0649 30.1688 24.0649 30.1688H24.0692C26.1765 30.1688 28.0473 29.1312 29.1792 27.5458C29.8971 26.5418 30.3193 25.3203 30.3236 23.9943L30.3405 23.6765C30.4926 21.6434 32.203 20.0455 34.2892 20.0455C35.3323 20.0455 36.2868 20.4471 36.996 21.0996C37.7055 21.7522 38.1743 22.66 38.2505 23.6765C38.2758 24.2956 38.7656 24.8143 39.3991 24.8143C40.0071 24.8143 40.4972 24.3458 40.5394 23.7517C40.5478 23.689 40.5268 23.4338 40.5268 23.4338Z" fill="#2746C7"/>
</g>
</g>
</g>
<defs>
<clipPath id="clip0_11_8757">
<rect width="48" height="47.75" fill="white"/>
</clipPath>
<clipPath id="clip1_11_8757">
<rect width="48" height="47.75" fill="white"/>
</clipPath>
<clipPath id="clip2_11_8757">
<rect width="48" height="47.7612" fill="white" transform="translate(0 -0.00585938)"/>
</clipPath>
</defs>
</svg>
