<svg width="43" height="43" viewBox="0 0 43 43" fill="none" xmlns="http://www.w3.org/2000/svg">
<rect width="43" height="43" rx="8" fill="#FAFBFF"/>
<path d="M18.2795 22.9261L24.7301 26.685M24.7206 16.3151L18.2795 20.0739" stroke="#869EFF" stroke-width="1.88888" stroke-linecap="round" stroke-linejoin="round"/>
<path d="M27.1668 17.7223C28.7316 17.7223 30.0001 16.4538 30.0001 14.889C30.0001 13.3242 28.7316 12.0557 27.1668 12.0557C25.602 12.0557 24.3335 13.3242 24.3335 14.889C24.3335 16.4538 25.602 17.7223 27.1668 17.7223Z" stroke="#3F5EDF" stroke-width="1.7" stroke-linecap="round" stroke-linejoin="round"/>
<path d="M15.8333 24.3334C17.3981 24.3334 18.6666 23.0649 18.6666 21.5001C18.6666 19.9353 17.3981 18.6667 15.8333 18.6667C14.2685 18.6667 13 19.9353 13 21.5001C13 23.0649 14.2685 24.3334 15.8333 24.3334Z" stroke="#3F5EDF" stroke-width="1.7" stroke-linecap="round" stroke-linejoin="round"/>
<path d="M27.1668 30.9445C28.7316 30.9445 30.0001 29.6759 30.0001 28.1111C30.0001 26.5464 28.7316 25.2778 27.1668 25.2778C25.602 25.2778 24.3335 26.5464 24.3335 28.1111C24.3335 29.6759 25.602 30.9445 27.1668 30.9445Z" stroke="#3F5EDF" stroke-width="1.7" stroke-linecap="round" stroke-linejoin="round"/>
</svg>
