<svg width="201" height="200" viewBox="0 0 201 200" fill="none" xmlns="http://www.w3.org/2000/svg">
<circle cx="100.001" cy="100" r="100" fill="#2746C7"/>
<path d="M169.707 98.1542C168.557 84.8588 157.31 74.4186 143.587 74.4186C134.745 74.4186 126.928 78.7629 122.189 85.4018C119.395 89.3256 117.644 94.0202 117.396 99.1527C117.378 99.5556 117.361 99.976 117.361 100.379C117.361 109.47 109.933 116.827 100.773 116.827C100.755 116.827 100.755 116.827 100.755 116.827H100.737C91.5946 116.827 84.1495 109.47 84.1495 100.379C84.1495 99.976 84.1318 99.5556 84.1141 99.1527C83.8842 94.0202 82.1334 89.3256 79.3216 85.4018C74.6353 78.7629 66.8187 74.4186 57.9765 74.4186C44.2534 74.4186 33.0061 84.8588 31.8566 98.1542C31.8566 98.1542 31.7682 99.2228 31.7859 99.4855C31.9628 101.955 34.0141 103.935 36.5607 103.935C39.231 103.935 41.2824 101.763 41.3709 99.1702C41.6892 94.9136 43.6522 91.1124 46.6231 88.3797C49.6118 85.6471 53.5908 83.9654 57.9588 83.9654C66.6949 83.9654 73.8571 90.6744 74.4938 99.1702L74.5645 100.501C74.5822 106.054 76.3506 111.169 79.357 115.373C84.0964 122.012 91.9306 126.357 100.755 126.357C100.773 126.357 100.773 126.357 100.773 126.357H100.791C109.615 126.357 117.449 122.012 122.189 115.373C125.195 111.169 126.963 106.054 126.981 100.501L127.052 99.1702C127.689 90.6569 134.851 83.9654 143.587 83.9654C147.955 83.9654 151.952 85.6471 154.922 88.3797C157.893 91.1124 159.856 94.9136 160.175 99.1702C160.281 101.763 162.332 103.935 164.985 103.935C167.531 103.935 169.583 101.973 169.76 99.4855C169.795 99.2228 169.707 98.1542 169.707 98.1542Z" fill="white"/>
</svg>
