<svg width="44" height="43" viewBox="0 0 44 43" fill="none" xmlns="http://www.w3.org/2000/svg">
<rect x="0.5" width="43" height="43" rx="8" fill="#FAFBFF"/>
<path fill-rule="evenodd" clip-rule="evenodd" d="M13.5 15C12.3954 15 11.5 15.8395 11.5 16.875V28.125C11.5 29.1606 12.3954 30 13.5 30H29.5C30.6046 30 31.5 29.1606 31.5 28.125V16.875C31.5 15.8395 30.6046 15 29.5 15H13.5ZM13 28.125V21.5625H30V28.125H13ZM30 20.1562V16.875H13V20.1562H30Z" fill="#3F5EDF"/>
<path d="M16 27C16.8284 27 17.5 26.3284 17.5 25.5C17.5 24.6716 16.8284 24 16 24C15.1716 24 14.5 24.6716 14.5 25.5C14.5 26.3284 15.1716 27 16 27Z" fill="#869EFF"/>
<path d="M13 19.5H30V22H13V19.5Z" fill="#869EFF"/>
</svg>
