<svg width="44" height="43" viewBox="0 0 44 43" fill="none" xmlns="http://www.w3.org/2000/svg">
<rect x="0.5" width="43" height="43" rx="8" fill="#FAFBFF"/>
<path d="M22 24C21.6028 24.0021 21.2225 24.1608 20.9417 24.4417C20.6608 24.7225 20.5021 25.1028 20.5 25.5C20.5 25.8978 20.658 26.2793 20.9393 26.5606C21.2206 26.8419 21.6022 27 22 27C22.3978 27 22.7794 26.8419 23.0607 26.5606C23.342 26.2793 23.5 25.8978 23.5 25.5C23.5 25.1022 23.342 24.7206 23.0607 24.4393C22.7794 24.158 22.3978 24 22 24Z" fill="#3F5EDF"/>
<path d="M30.6985 21.2373C30.8132 21.386 30.8777 21.5833 30.8787 21.7888V29.2113C30.8787 29.4232 30.8112 29.6265 30.6908 29.7774C30.5703 29.9282 30.4067 30.0143 30.2353 30.0171H13.7561C13.5832 30.0171 13.4174 29.9322 13.2951 29.7811C13.1728 29.63 13.1042 29.425 13.1042 29.2113V21.7888C13.1042 21.6834 13.1211 21.5791 13.154 21.4819C13.1868 21.3847 13.235 21.2966 13.2956 21.2226C13.3563 21.1486 13.4282 21.0903 13.5073 21.0509C13.5863 21.0116 13.6709 20.9921 13.7561 20.9935H27.0064C26.5519 20.4709 26.2655 19.7629 26.2 19L13.7647 19C13.1656 19 12.5908 19.2935 12.1663 19.8161C11.7419 20.3388 11.5023 21.0482 11.5 21.7888V29.2113C11.5023 29.9519 11.7419 30.6612 12.1663 31.1839C12.5908 31.7065 13.1656 32 13.7647 32H30.2439C30.8422 32 31.4161 31.7062 31.8392 31.1832C32.2623 30.6602 32.5 29.9509 32.5 29.2113V21.7888C32.4996 21.4089 32.4362 21.0332 32.3138 20.6849C32.1913 20.3366 32.0124 20.023 31.788 19.7635L31.2046 20.6647C31.0574 20.8827 30.8872 21.0753 30.6985 21.2373Z" fill="#3F5EDF"/>
<path d="M32.4994 15.6349C32.4994 15.6349 32.4994 15.5932 32.4994 15.5765C32.5002 15.5626 32.5002 15.5487 32.4994 15.5348C32.4994 15.5348 32.4994 15.5348 32.4994 15.4764C32.4994 15.4179 32.4994 15.4012 32.4994 15.3595C32.4884 15.1629 32.4239 14.9742 32.3142 14.817L29.7832 11.3952C29.7043 11.2876 29.6065 11.1978 29.4955 11.1312C29.3845 11.0645 29.2623 11.0222 29.1362 11.0067C29.01 10.9912 28.8822 11.0028 28.7602 11.0408C28.6381 11.0788 28.5242 11.1426 28.425 11.2283C28.3255 11.3136 28.2425 11.4194 28.1809 11.5394C28.1192 11.6595 28.0801 11.7916 28.0658 11.9281C28.0514 12.0645 28.0622 12.2027 28.0973 12.3347C28.1325 12.4667 28.1914 12.5899 28.2707 12.6972L29.6057 14.4916H21.4646C21.2088 14.4916 20.9634 14.6014 20.7825 14.7971C20.6016 14.9927 20.5 15.2581 20.5 15.5348C20.5 15.8115 20.6016 16.0768 20.7825 16.2725C20.9634 16.4681 21.2088 16.578 21.4646 16.578H29.5517L28.2707 18.3056C28.1914 18.4129 28.1325 18.5361 28.0973 18.6681C28.0622 18.8 28.0514 18.9382 28.0658 19.0747C28.0801 19.2112 28.1192 19.3433 28.1809 19.4634C28.2425 19.5834 28.3255 19.6892 28.425 19.7745C28.5969 19.92 28.8087 19.9993 29.0269 19.9998C29.1747 20.0028 29.3212 19.9689 29.455 19.9009C29.5888 19.8329 29.7064 19.7325 29.7986 19.6076L32.3297 16.1858C32.3297 16.1858 32.3297 16.1023 32.3837 16.0689C32.4205 16.0085 32.4516 15.9442 32.4763 15.8769C32.4938 15.7977 32.5016 15.7164 32.4994 15.6349Z" fill="#869EFF"/>
</svg>
